{"glyphs":{":":{"x_min":0,"x_max":286,"ha":286,"o":"m 144 405 q 118 405 100 420 q 81 435 81 473 q 81 512 100 526 q 118 541 144 541 q 170 541 188 526 q 207 512 207 473 q 207 435 188 420 q 170 405 144 405 z m 144 -7 q 118 -7 100 8 q 81 23 81 61 q 81 100 100 114 q 118 129 144 129 q 170 129 188 114 q 207 100 207 61 q 207 23 188 8 q 170 -7 144 -7 z"},"$":{"x_min":0,"x_max":559,"ha":559,"o":"m 253 -79 l 253 40 q 159 40 108 76 q 56 113 56 176 q 56 206 75 224 q 94 243 128 243 q 134 202 147 166 q 160 129 185 106 q 210 84 253 84 l 253 331 q 190 359 153 386 q 116 414 100 447 q 83 480 83 524 q 83 592 129 633 q 175 674 253 682 l 253 760 l 303 760 l 303 684 q 393 682 431 650 q 469 618 469 572 q 469 540 448 524 q 426 507 390 507 q 390 536 383 565 q 376 594 357 614 q 338 634 303 638 l 303 405 q 363 378 404 352 q 446 325 468 292 q 489 258 489 210 q 489 135 440 93 q 392 51 303 42 l 303 -79 z m 253 427 l 253 636 q 213 628 193 600 q 173 571 173 532 q 173 490 194 467 q 214 444 253 427 z m 303 87 q 348 94 372 123 q 397 152 397 195 q 397 235 376 260 q 355 286 303 309 z"},"?":{"x_min":0,"x_max":474,"ha":474,"o":"m 188 201 l 184 353 q 244 377 278 410 q 311 443 325 482 q 339 520 339 560 q 339 612 312 644 q 286 675 228 675 q 186 675 162 657 q 137 639 126 610 q 116 580 116 546 q 80 546 56 562 q 33 578 33 609 q 33 658 79 691 q 125 724 220 724 q 283 724 332 702 q 380 681 408 640 q 436 600 436 543 q 436 460 385 406 q 334 352 245 314 l 242 201 z m 213 -7 q 187 -7 168 8 q 150 23 150 61 q 150 100 168 114 q 187 129 213 129 q 238 129 257 114 q 276 100 276 61 q 276 23 257 8 q 238 -7 213 -7 z"},"<":{"x_min":0,"x_max":559,"ha":559,"o":"m 494 110 l 65 340 l 65 375 l 494 606 l 494 539 l 158 357 l 494 177 z"},"'":{"x_min":0,"x_max":220,"ha":220,"o":"m 87 479 l 57 714 l 163 714 l 133 479 z"},"=":{"x_min":0,"x_max":559,"ha":559,"o":"m 65 426 l 65 485 l 494 485 l 494 426 z m 65 229 l 65 288 l 494 288 l 494 229 z"},"a":{"x_min":0,"x_max":563,"ha":563,"o":"m 205 -10 q 138 -10 94 29 q 50 68 50 150 q 50 230 106 268 q 163 306 278 310 l 361 313 l 361 373 q 361 409 355 436 q 349 464 329 480 q 309 496 268 496 q 230 496 210 482 q 190 468 184 443 q 177 418 177 387 q 135 387 114 402 q 92 416 92 450 q 92 484 116 506 q 141 527 182 536 q 222 546 272 546 q 364 546 410 507 q 455 468 455 373 l 455 114 q 455 72 469 57 q 483 42 517 42 l 520 42 l 520 0 l 385 0 l 369 86 l 361 86 q 340 58 320 36 q 300 15 273 2 q 246 -10 205 -10 z m 228 52 q 289 52 325 90 q 361 127 361 191 l 361 272 l 297 269 q 212 265 180 234 q 147 204 147 145 q 147 52 228 52 z"},"L":{"x_min":0,"x_max":623,"ha":623,"o":"m 38 0 l 38 42 l 51 42 q 85 42 109 54 q 133 67 133 114 l 133 600 q 133 647 109 660 q 85 672 51 672 l 38 672 l 38 714 l 329 714 l 329 672 l 316 672 q 283 672 258 660 q 234 648 234 604 l 234 50 l 431 50 q 461 50 480 64 q 498 77 507 98 q 516 118 519 140 l 529 215 l 581 215 l 574 0 z"},"3":{"x_min":0,"x_max":559,"ha":559,"o":"m 247 -10 q 148 -10 103 24 q 58 57 58 101 q 58 131 75 148 q 92 165 121 165 q 121 112 154 78 q 187 44 248 44 q 288 44 322 59 q 355 74 376 110 q 397 145 397 205 q 397 268 348 306 q 300 344 216 344 l 184 344 l 184 395 l 216 395 q 260 395 296 414 q 331 433 352 468 q 373 503 373 550 q 373 608 348 641 q 324 674 266 674 q 220 674 196 653 q 173 632 164 598 q 156 564 156 525 q 120 525 95 538 q 70 552 70 590 q 70 648 120 686 q 169 724 266 724 q 360 724 418 682 q 476 641 476 565 q 476 520 455 482 q 434 445 398 418 q 362 392 316 381 q 344 378 376 368 q 408 359 436 339 q 465 319 483 286 q 501 254 501 204 q 501 144 478 102 q 455 61 417 36 q 379 12 334 1 q 290 -10 247 -10 z"},";":{"x_min":0,"x_max":286,"ha":286,"o":"m 144 405 q 118 405 100 420 q 81 435 81 473 q 81 512 100 526 q 118 541 144 541 q 170 541 188 526 q 207 512 207 473 q 207 435 188 420 q 170 405 144 405 z m 48 -154 l 48 -112 q 143 -81 143 -22 q 143 -7 132 1 q 121 9 106 16 q 92 23 81 35 q 70 47 70 70 q 70 98 88 114 q 107 129 135 129 q 166 129 189 106 q 212 84 212 42 q 212 -22 174 -75 q 137 -128 48 -154 z"},"J":{"x_min":0,"x_max":357,"ha":357,"o":"m -11 -240 l -11 -193 l -2 -193 q 41 -193 71 -176 q 101 -160 117 -120 q 133 -80 133 -9 l 133 604 q 133 648 108 660 q 84 672 51 672 l 38 672 l 38 714 l 329 714 l 329 672 l 316 672 q 282 672 258 660 q 234 647 234 600 l 234 -8 q 234 -98 204 -148 q 173 -199 122 -220 q 70 -240 6 -240 z"},"V":{"x_min":0,"x_max":675,"ha":675,"o":"m 300 0 l 84 619 q 74 650 58 661 q 42 672 13 672 l 0 672 l 0 714 l 275 714 l 275 672 l 252 672 q 192 672 192 624 q 192 616 194 607 q 196 598 200 587 l 310 262 q 325 218 336 176 q 347 134 355 98 q 362 134 373 175 q 384 216 401 262 l 511 580 q 515 592 518 604 q 520 615 520 623 q 520 672 454 672 l 431 672 l 431 714 l 675 714 l 675 672 l 656 672 q 627 672 612 658 q 596 643 580 594 l 373 0 z"},"\"":{"x_min":0,"x_max":408,"ha":408,"o":"m 275 479 l 245 714 l 351 714 l 321 479 z m 87 479 l 57 714 l 163 714 l 133 479 z"},"7":{"x_min":0,"x_max":559,"ha":559,"o":"m 190 0 l 426 634 l 163 634 q 110 634 105 583 l 101 533 l 59 533 l 64 714 l 511 714 l 511 685 l 265 0 z"},"S":{"x_min":0,"x_max":544,"ha":544,"o":"m 247 -10 q 149 -10 98 29 q 48 68 48 131 q 48 161 67 180 q 86 198 120 198 q 122 156 136 120 q 150 84 179 62 q 208 39 255 39 q 322 39 360 72 q 398 104 398 165 q 398 202 384 228 q 369 253 336 275 q 302 297 243 321 q 150 359 104 410 q 59 460 59 543 q 59 600 88 640 q 116 681 166 702 q 215 724 278 724 q 367 724 416 690 q 465 656 465 612 q 465 580 444 564 q 422 547 386 547 q 386 578 376 607 q 365 636 340 655 q 316 674 274 674 q 216 674 184 643 q 152 612 152 560 q 152 520 166 492 q 181 465 215 444 q 249 422 307 398 q 395 362 444 315 q 493 268 493 191 q 493 96 426 43 q 360 -10 247 -10 z"},"}":{"x_min":0,"x_max":428,"ha":428,"o":"m 50 -128 l 50 -85 l 80 -85 q 124 -85 143 -58 q 162 -31 162 20 l 162 193 q 162 242 189 274 q 216 307 273 317 l 273 318 q 218 327 190 360 q 162 392 162 441 l 162 612 q 162 664 143 690 q 124 717 80 717 l 50 717 l 50 760 l 116 760 q 186 760 223 722 q 260 685 260 617 l 260 443 q 260 402 276 380 q 292 358 318 348 q 345 339 378 338 l 378 296 q 345 294 318 285 q 292 276 276 254 q 260 231 260 190 l 260 16 q 260 -50 223 -89 q 186 -128 116 -128 z"},"Z":{"x_min":0,"x_max":592,"ha":592,"o":"m 36 0 l 36 40 l 411 664 l 194 664 q 150 664 133 640 q 116 615 112 582 l 107 539 l 55 539 l 60 714 l 534 714 l 534 673 l 158 50 l 410 50 q 455 50 472 74 q 489 99 493 132 l 498 175 l 550 175 l 545 0 z"},"x":{"x_min":0,"x_max":578,"ha":578,"o":"m 5 0 l 5 42 l 14 42 q 50 42 72 55 q 94 68 123 106 l 249 269 l 123 441 q 101 466 80 480 q 60 494 37 494 l 24 494 l 24 536 l 278 536 l 278 494 l 275 494 q 240 494 229 486 q 218 477 218 465 q 218 454 224 444 q 230 435 241 419 l 307 329 l 359 404 q 370 421 377 436 q 384 452 384 465 q 384 483 368 488 q 353 494 330 494 l 327 494 l 327 536 l 546 536 l 546 494 l 537 494 q 508 494 487 482 q 466 470 436 430 l 333 293 l 480 95 q 502 66 522 54 q 541 42 560 42 l 573 42 l 573 0 l 315 0 l 315 42 l 320 42 q 380 42 380 75 q 380 86 372 99 q 365 112 342 144 l 275 234 l 205 136 q 196 124 187 106 q 178 89 178 73 q 178 56 192 49 q 207 42 240 42 l 243 42 l 243 0 z"},")":{"x_min":0,"x_max":346,"ha":346,"o":"m 32 -128 l 32 -82 q 100 -40 133 23 q 166 86 176 162 q 185 238 185 317 q 185 396 176 472 q 166 548 133 611 q 100 674 32 715 l 32 760 q 124 724 180 666 q 237 608 263 522 q 289 437 289 317 q 289 196 263 110 q 237 24 180 -34 q 124 -92 32 -128 z"},"&":{"x_min":0,"x_max":742,"ha":742,"o":"m 274 -10 q 154 -10 95 48 q 36 106 36 200 q 36 256 56 294 q 76 332 112 358 q 148 384 196 405 q 158 450 138 489 q 119 528 119 577 q 119 643 164 684 q 208 724 308 724 q 372 724 411 704 q 450 685 468 652 q 485 620 485 582 q 485 539 468 508 q 451 477 414 452 q 377 427 316 401 l 498 208 q 512 253 516 299 q 521 345 521 382 l 521 421 l 701 421 l 701 379 l 692 379 q 658 379 629 368 q 600 357 587 311 q 578 279 566 242 q 555 204 538 166 l 631 67 q 645 52 664 47 q 684 42 724 42 l 733 42 l 733 0 l 573 0 l 490 88 q 454 47 402 18 q 350 -10 274 -10 z m 282 439 q 341 464 369 496 q 397 528 397 581 q 397 621 376 648 q 355 675 304 675 q 260 675 236 649 q 212 623 212 580 q 212 542 228 512 q 244 481 282 439 z m 283 46 q 342 46 384 69 q 426 92 454 127 l 233 364 q 187 338 160 300 q 134 262 134 197 q 134 124 175 85 q 216 46 283 46 z"},"_":{"x_min":0,"x_max":459,"ha":459,"o":"m -5 -142 l -5 -83 l 464 -83 l 464 -142 z"},"v":{"x_min":0,"x_max":579,"ha":579,"o":"m 239 0 l 78 441 q 67 472 52 483 q 36 494 4 494 l 4 536 l 254 536 l 254 494 l 241 494 q 181 494 181 446 q 181 438 183 429 q 185 420 189 409 l 257 220 q 270 183 283 140 q 296 96 304 70 q 309 91 324 131 q 340 171 354 207 l 426 402 q 435 426 435 445 q 435 494 369 494 l 362 494 l 362 536 l 576 536 l 576 494 l 564 494 q 535 494 520 479 q 506 464 488 416 l 330 0 z"},"O":{"x_min":0,"x_max":742,"ha":742,"o":"m 371 -10 q 265 -10 195 36 q 125 82 90 165 q 56 248 56 359 q 56 470 90 552 q 125 634 196 680 q 266 725 372 725 q 472 725 542 680 q 612 634 648 552 q 685 469 685 358 q 685 247 648 164 q 612 82 542 36 q 472 -10 371 -10 z m 371 44 q 483 44 528 127 q 574 210 574 358 q 574 506 528 588 q 483 671 372 671 q 260 671 214 588 q 167 506 167 358 q 167 210 214 127 q 260 44 371 44 z"},"(":{"x_min":0,"x_max":346,"ha":346,"o":"m 314 -128 q 222 -92 166 -34 q 109 24 83 110 q 57 196 57 317 q 57 437 83 522 q 109 608 166 666 q 222 724 314 760 l 314 715 q 245 674 212 611 q 180 548 170 472 q 161 396 161 317 q 161 238 170 162 q 180 86 212 23 q 245 -40 314 -82 z"},"C":{"x_min":0,"x_max":614,"ha":614,"o":"m 361 -10 q 262 -10 194 36 q 126 82 92 164 q 57 247 57 358 q 57 466 94 548 q 130 631 201 678 q 272 724 378 724 q 480 724 530 692 q 580 660 580 612 q 580 580 555 561 q 530 542 493 542 q 493 573 482 602 q 471 632 446 652 q 420 671 376 671 q 263 671 216 590 q 168 508 168 358 q 168 268 190 200 q 211 132 256 94 q 302 56 376 56 q 449 56 490 82 q 532 107 557 141 q 565 136 570 126 q 576 117 576 102 q 576 77 553 51 q 530 25 482 8 q 435 -10 361 -10 z"},"W":{"x_min":0,"x_max":1047,"ha":1047,"o":"m 276 0 l 93 619 q 83 650 67 661 q 51 672 22 672 l 9 672 l 9 714 l 284 714 l 284 672 l 261 672 q 201 672 201 624 q 201 616 204 607 q 206 598 209 587 l 301 267 q 314 222 325 178 q 336 134 344 98 q 352 137 362 184 q 372 230 385 278 l 504 707 l 576 707 l 701 274 q 715 224 726 178 q 737 132 744 98 q 752 134 761 174 q 770 214 784 262 l 872 571 q 875 583 879 599 q 883 615 883 623 q 883 672 817 672 l 794 672 l 794 714 l 1038 714 l 1038 672 l 1019 672 q 990 672 974 658 q 957 644 943 594 l 774 0 l 684 0 l 521 560 l 368 0 z"},"A":{"x_min":0,"x_max":705,"ha":705,"o":"m 0 0 l 0 42 l 19 42 q 48 42 62 57 q 77 72 95 120 l 317 714 l 395 714 l 621 95 q 632 64 648 53 q 663 42 692 42 l 705 42 l 705 0 l 430 0 l 430 42 l 453 42 q 513 42 513 90 q 513 98 511 107 q 509 116 505 127 l 465 239 l 202 239 l 164 134 q 155 110 155 91 q 155 42 221 42 l 244 42 l 244 0 z m 221 289 l 447 289 l 385 464 q 369 508 356 547 q 343 586 335 622 q 328 586 317 553 q 306 520 289 473 z"},"f":{"x_min":0,"x_max":369,"ha":369,"o":"m 27 0 l 27 42 l 40 42 q 74 42 98 54 q 122 67 122 114 l 122 489 l 31 489 l 31 536 l 122 536 l 122 586 q 122 675 170 722 q 217 770 299 770 q 377 770 408 750 q 439 731 439 700 q 439 673 416 658 q 393 644 357 644 q 357 674 343 699 q 329 724 291 724 q 248 724 232 691 q 216 658 216 595 l 216 536 l 357 536 l 357 489 l 216 489 l 216 114 q 216 67 240 54 q 264 42 298 42 l 336 42 l 336 0 z"},"Q":{"x_min":0,"x_max":742,"ha":742,"o":"m 559 -230 q 506 -230 456 -210 q 405 -190 370 -142 q 334 -94 328 -8 q 236 2 176 50 q 116 97 86 176 q 56 256 56 359 q 56 470 90 552 q 125 634 196 680 q 266 725 372 725 q 472 725 542 680 q 612 634 648 552 q 685 469 685 358 q 685 260 656 184 q 628 108 573 60 q 518 11 438 -4 q 444 -72 464 -112 q 483 -151 514 -167 q 546 -183 586 -183 l 602 -183 l 602 -230 z m 371 44 q 483 44 528 127 q 574 210 574 358 q 574 506 528 588 q 483 671 372 671 q 260 671 214 588 q 167 506 167 358 q 167 210 214 127 q 260 44 371 44 z"},"w":{"x_min":0,"x_max":862,"ha":862,"o":"m 206 0 l 75 441 q 64 472 48 483 q 33 494 4 494 l 1 494 l 1 536 l 248 536 l 248 494 l 235 494 q 205 494 190 486 q 175 477 175 452 q 175 444 178 432 q 180 420 183 409 l 230 241 q 236 217 243 188 q 250 158 256 131 q 262 104 265 88 l 268 88 q 272 113 284 154 q 296 194 309 231 l 413 533 l 476 533 l 576 237 q 584 213 593 184 q 602 156 609 130 q 616 104 619 88 l 622 88 q 631 139 661 234 l 711 395 q 715 408 718 422 q 720 437 720 445 q 720 494 654 494 l 647 494 l 647 536 l 861 536 l 861 494 l 848 494 q 819 494 804 480 q 788 466 773 416 l 644 0 l 564 0 l 427 418 l 285 0 z"},"-":{"x_min":0,"x_max":310,"ha":310,"o":"m 25 235 l 25 310 l 285 310 l 285 235 z"},"E":{"x_min":0,"x_max":623,"ha":623,"o":"m 38 0 l 38 42 l 51 42 q 84 42 108 54 q 133 65 133 109 l 133 600 q 133 647 109 660 q 85 672 51 672 l 38 672 l 38 714 l 542 714 l 547 539 l 495 539 l 490 582 q 486 615 466 640 q 447 664 402 664 l 234 664 l 234 398 l 475 398 l 475 349 l 234 349 l 234 50 l 427 50 q 474 50 496 74 q 517 99 522 132 l 529 175 l 581 175 l 574 0 z"},"s":{"x_min":0,"x_max":451,"ha":451,"o":"m 210 -10 q 135 -10 90 17 q 45 44 45 96 q 45 123 56 138 q 66 153 81 159 q 96 165 108 165 q 108 112 132 75 q 155 38 216 38 q 269 38 298 63 q 326 88 326 129 q 326 154 316 170 q 305 186 278 202 q 252 217 203 238 q 152 260 118 282 q 85 304 68 332 q 52 360 52 404 q 52 472 104 508 q 155 545 240 545 q 312 545 349 518 q 386 490 386 453 q 386 426 367 410 q 348 393 314 393 q 314 443 293 471 q 272 499 228 499 q 177 499 155 476 q 133 454 133 419 q 133 381 162 360 q 190 340 257 313 q 310 291 343 269 q 376 247 392 218 q 407 189 407 147 q 407 69 352 30 q 298 -10 210 -10 z"},">":{"x_min":0,"x_max":559,"ha":559,"o":"m 65 110 l 65 177 l 401 357 l 65 539 l 65 606 l 494 375 l 494 340 z"},"l":{"x_min":0,"x_max":310,"ha":310,"o":"m 13 0 l 13 42 l 26 42 q 60 42 84 54 q 108 67 108 114 l 108 650 q 108 694 84 706 q 59 718 26 718 l 13 718 l 13 760 l 202 760 l 202 114 q 202 67 226 54 q 250 42 284 42 l 297 42 l 297 0 z"},"8":{"x_min":0,"x_max":559,"ha":559,"o":"m 273 -10 q 198 -10 148 16 q 97 41 72 84 q 46 126 46 179 q 46 227 66 260 q 86 293 120 317 q 154 341 198 362 q 141 394 105 438 q 69 482 69 545 q 69 591 91 632 q 113 673 160 698 q 208 724 285 724 q 379 724 430 676 q 482 627 482 552 q 482 486 445 450 q 408 413 347 383 q 421 348 467 302 q 513 256 513 191 q 513 96 448 43 q 382 -10 273 -10 z m 298 406 q 354 434 374 468 q 393 502 393 554 q 393 584 382 612 q 371 641 346 659 q 321 677 279 677 q 223 677 193 643 q 163 609 163 557 q 163 503 197 470 q 231 437 298 406 z m 278 36 q 343 36 382 74 q 422 111 422 169 q 422 220 382 258 q 343 296 246 338 q 199 312 171 272 q 143 231 143 175 q 143 113 177 74 q 211 36 278 36 z"},"\\":{"x_min":0,"x_max":288,"ha":288,"o":"m 229 -121 l 0 760 l 58 760 l 288 -121 z"},"e":{"x_min":0,"x_max":535,"ha":535,"o":"m 287 -10 q 178 -10 116 62 q 55 134 55 264 q 55 404 112 475 q 170 546 277 546 q 374 546 430 486 q 485 426 485 307 l 485 261 l 152 261 q 154 152 192 102 q 229 53 301 53 q 353 53 390 74 q 426 96 444 123 q 451 120 457 111 q 463 102 463 89 q 463 69 444 46 q 425 23 386 6 q 346 -10 287 -10 z m 154 315 l 384 315 q 384 394 360 443 q 335 492 275 492 q 220 492 190 446 q 159 401 154 315 z"},"b":{"x_min":0,"x_max":614,"ha":614,"o":"m 355 -10 q 297 -10 260 14 q 224 39 202 78 l 196 78 l 178 0 l 18 0 l 18 42 l 26 42 q 60 42 84 54 q 108 67 108 114 l 108 650 q 108 694 84 706 q 59 718 26 718 l 18 718 l 18 760 l 202 760 l 202 576 q 202 558 202 532 q 201 506 200 482 q 199 457 198 446 l 202 446 q 224 492 260 519 q 296 546 355 546 q 454 546 506 480 q 559 413 559 269 q 559 124 506 57 q 454 -10 355 -10 z m 339 54 q 405 54 434 110 q 462 165 462 270 q 462 376 434 429 q 405 482 338 482 q 260 482 231 430 q 202 377 202 269 q 202 165 231 110 q 260 54 339 54 z"},"%":{"x_min":0,"x_max":896,"ha":896,"o":"m 209 280 q 123 280 84 341 q 45 402 45 503 q 45 604 84 664 q 123 724 210 724 q 292 724 332 664 q 373 604 373 503 q 373 402 332 341 q 292 280 209 280 z m 235 0 l 592 714 l 657 714 l 301 0 z m 209 321 q 250 321 266 369 q 282 417 282 503 q 282 588 266 635 q 250 682 210 682 q 169 682 152 635 q 135 588 135 503 q 135 417 152 369 q 168 321 209 321 z m 687 -10 q 601 -10 562 51 q 523 112 523 213 q 523 314 562 374 q 601 434 688 434 q 770 434 810 374 q 851 314 851 213 q 851 112 810 51 q 770 -10 687 -10 z m 687 31 q 728 31 744 79 q 760 127 760 213 q 760 298 744 345 q 728 392 688 392 q 647 392 630 345 q 613 298 613 213 q 613 127 630 79 q 646 31 687 31 z"},"m":{"x_min":0,"x_max":945,"ha":945,"o":"m 28 0 l 28 42 l 41 42 q 75 42 96 54 q 118 67 118 114 l 118 426 q 118 470 96 482 q 74 494 41 494 l 38 494 l 38 536 l 195 536 l 208 455 l 213 455 q 243 511 280 528 q 318 546 364 546 q 412 546 451 526 q 490 505 509 455 l 517 455 q 547 511 588 528 q 628 546 674 546 q 750 546 794 500 q 837 453 837 350 l 837 114 q 837 67 858 54 q 880 42 914 42 l 917 42 l 917 0 l 743 0 l 743 345 q 743 410 720 446 q 696 482 638 482 q 596 482 572 462 q 548 441 538 407 q 527 373 527 333 l 527 114 q 527 67 548 54 q 570 42 604 42 l 607 42 l 607 0 l 433 0 l 433 345 q 433 410 410 446 q 386 482 328 482 q 284 482 259 460 q 234 437 223 400 q 212 363 212 320 l 212 109 q 212 65 236 54 q 261 42 294 42 l 297 42 l 297 0 z"},"#":{"x_min":0,"x_max":559,"ha":559,"o":"m 79 0 l 117 203 l 25 203 l 25 262 l 128 262 l 166 458 l 57 458 l 57 517 l 177 517 l 213 714 l 274 714 l 237 517 l 376 517 l 413 714 l 473 714 l 436 517 l 534 517 l 534 458 l 425 458 l 388 262 l 502 262 l 502 203 l 376 203 l 338 0 l 278 0 l 316 203 l 177 203 l 139 0 z m 189 262 l 328 262 l 365 458 l 226 458 z"},",":{"x_min":0,"x_max":250,"ha":250,"o":"m 30 -154 l 30 -112 q 125 -81 125 -22 q 125 -7 114 1 q 103 9 88 16 q 74 23 63 35 q 52 47 52 70 q 52 98 70 114 q 89 129 117 129 q 148 129 171 106 q 194 84 194 42 q 194 -22 156 -75 q 119 -128 30 -154 z"},"n":{"x_min":0,"x_max":645,"ha":645,"o":"m 28 0 l 28 42 l 36 42 q 70 42 94 54 q 118 67 118 114 l 118 426 q 118 470 94 482 q 71 494 38 494 l 33 494 l 33 536 l 195 536 l 208 455 l 213 455 q 244 511 282 528 q 321 546 369 546 q 448 546 492 500 q 537 453 537 350 l 537 114 q 537 67 558 54 q 578 42 612 42 l 617 42 l 617 0 l 443 0 l 443 345 q 443 410 418 446 q 394 482 333 482 q 288 482 262 460 q 235 437 224 400 q 212 363 212 320 l 212 109 q 212 65 236 54 q 259 42 292 42 l 297 42 l 297 0 z"},"h":{"x_min":0,"x_max":635,"ha":635,"o":"m 18 0 l 18 42 l 26 42 q 60 42 84 54 q 108 67 108 114 l 108 650 q 108 694 84 706 q 59 718 26 718 l 18 718 l 18 760 l 202 760 l 202 540 q 202 522 201 502 q 200 482 199 468 q 198 455 198 455 l 203 455 q 248 546 350 546 q 436 546 482 500 q 527 453 527 350 l 527 114 q 527 67 548 54 q 570 42 604 42 l 607 42 l 607 0 l 433 0 l 433 345 q 433 410 408 446 q 384 482 323 482 q 261 482 232 438 q 202 394 202 320 l 202 109 q 202 65 226 54 q 251 42 284 42 l 287 42 l 287 0 z"},"z":{"x_min":0,"x_max":511,"ha":511,"o":"m 42 0 l 42 40 l 332 479 l 176 479 q 136 479 123 458 q 110 438 99 398 l 98 394 l 56 394 l 66 536 l 449 536 l 449 495 l 158 57 l 340 57 q 374 57 388 82 q 401 107 408 139 l 413 162 l 455 162 l 450 0 z"},"B":{"x_min":0,"x_max":654,"ha":654,"o":"m 38 0 l 38 42 l 51 42 q 85 42 109 54 q 133 67 133 114 l 133 604 q 133 648 108 660 q 84 672 51 672 l 38 672 l 38 714 l 306 714 q 436 714 500 670 q 563 627 563 535 q 563 468 528 432 q 492 395 439 378 l 439 374 q 507 362 550 317 q 593 272 593 193 q 593 0 336 0 z m 234 399 l 303 399 q 391 399 424 431 q 456 463 456 535 q 456 608 421 636 q 386 664 301 664 l 234 664 z m 234 50 l 331 50 q 416 50 451 83 q 486 116 486 196 q 486 274 454 312 q 421 349 333 349 l 234 349 z"},"K":{"x_min":0,"x_max":700,"ha":700,"o":"m 38 0 l 38 42 l 51 42 q 84 42 108 54 q 133 65 133 109 l 133 604 q 133 648 108 660 q 84 672 51 672 l 38 672 l 38 714 l 329 714 l 329 672 l 316 672 q 282 672 258 660 q 234 647 234 600 l 234 318 l 441 555 q 473 592 484 614 q 496 637 496 651 q 496 664 484 668 q 472 673 447 673 l 447 714 l 668 714 l 668 673 q 634 673 604 648 q 573 622 534 579 l 389 416 l 600 122 q 628 83 655 62 q 682 42 710 42 l 712 42 l 712 0 l 701 0 q 651 0 618 4 q 586 8 564 18 q 543 28 526 46 q 510 63 491 90 l 319 337 l 234 268 l 234 114 q 234 67 258 54 q 282 42 316 42 l 329 42 l 329 0 z"},"R":{"x_min":0,"x_max":656,"ha":656,"o":"m 38 0 l 38 42 l 51 42 q 84 42 108 54 q 133 65 133 109 l 133 604 q 133 648 108 660 q 84 672 51 672 l 38 672 l 38 714 l 307 714 q 564 714 564 521 q 564 468 542 432 q 520 395 486 373 q 452 351 417 339 l 554 122 q 580 82 604 62 q 628 42 659 42 l 662 42 l 662 0 l 648 0 q 586 0 552 6 q 517 13 496 32 q 474 52 452 90 l 317 315 l 234 315 l 234 109 q 234 65 258 54 q 283 42 316 42 l 329 42 l 329 0 z m 234 362 l 304 362 q 392 362 424 401 q 457 440 457 518 q 457 598 422 632 q 387 666 302 666 l 234 666 z"},"T":{"x_min":0,"x_max":613,"ha":613,"o":"m 150 0 l 150 42 l 173 42 q 206 42 230 54 q 255 65 255 109 l 255 664 l 159 664 q 115 664 98 640 q 81 615 77 582 l 72 539 l 20 539 l 25 714 l 588 714 l 593 539 l 541 539 l 536 582 q 532 615 515 640 q 498 664 453 664 l 356 664 l 356 114 q 356 67 380 54 q 404 42 438 42 l 461 42 l 461 0 z"},"P":{"x_min":0,"x_max":604,"ha":604,"o":"m 38 0 l 38 42 l 51 42 q 85 42 109 54 q 133 67 133 114 l 133 604 q 133 648 108 660 q 84 672 51 672 l 38 672 l 38 714 l 319 714 q 445 714 505 658 q 565 602 565 505 q 565 446 540 394 q 514 342 455 310 q 396 278 297 278 l 234 278 l 234 109 q 234 65 258 54 q 283 42 316 42 l 349 42 l 349 0 z m 234 325 l 287 325 q 378 325 418 366 q 457 406 457 501 q 457 585 422 626 q 387 666 302 666 l 234 666 z"},"|":{"x_min":0,"x_max":559,"ha":559,"o":"m 249 -240 l 249 760 l 309 760 l 309 -240 z"},"t":{"x_min":0,"x_max":352,"ha":352,"o":"m 240 -10 q 164 -10 130 24 q 95 59 95 145 l 95 479 l 19 479 l 19 519 q 37 519 58 526 q 80 534 97 551 q 114 569 125 595 q 136 621 143 659 l 189 659 l 189 536 l 320 536 l 320 479 l 189 479 l 189 142 q 189 91 210 67 q 230 43 265 43 q 283 43 298 45 q 313 47 329 50 l 329 6 q 316 0 290 -5 q 264 -10 240 -10 z"},"M":{"x_min":0,"x_max":938,"ha":938,"o":"m 38 0 l 38 42 l 51 42 q 84 42 108 54 q 133 65 133 109 l 133 604 q 133 648 108 660 q 84 672 51 672 l 38 672 l 38 714 l 266 714 l 473 142 l 678 714 l 900 714 l 900 672 l 887 672 q 853 672 829 660 q 805 647 805 600 l 805 114 q 805 67 829 54 q 853 42 887 42 l 900 42 l 900 0 l 634 0 l 634 42 l 637 42 q 669 42 688 53 q 707 64 709 105 l 709 639 l 480 0 l 426 0 l 194 637 l 194 114 q 194 67 213 54 q 232 42 266 42 l 269 42 l 269 0 z"},"g":{"x_min":0,"x_max":538,"ha":538,"o":"m 231 -240 q 127 -240 75 -202 q 23 -163 23 -94 q 23 -36 60 -6 q 98 25 148 34 q 128 43 110 64 q 93 84 93 116 q 93 146 108 168 q 124 190 158 210 q 115 228 92 270 q 68 311 68 361 q 68 447 115 496 q 162 546 256 546 q 292 546 324 536 q 356 526 370 513 q 384 529 409 548 q 434 567 467 567 q 497 567 512 552 q 526 536 526 515 q 526 494 514 478 q 501 463 473 463 q 473 474 466 486 q 460 497 440 497 q 416 497 397 485 q 414 464 425 436 q 436 407 436 364 q 436 290 392 241 q 347 192 256 192 q 244 192 228 194 q 213 195 203 197 q 184 187 170 172 q 156 156 156 134 q 156 116 168 106 q 179 96 218 96 l 331 96 q 420 96 458 54 q 496 12 496 -53 q 496 -139 432 -190 q 367 -240 231 -240 z m 253 240 q 302 240 322 270 q 342 300 342 365 q 342 432 322 464 q 301 497 252 497 q 204 497 183 464 q 162 431 162 364 q 162 300 184 270 q 205 240 253 240 z m 233 -191 q 304 -191 344 -176 q 383 -160 398 -132 q 414 -105 414 -70 q 414 -24 388 -8 q 362 7 312 7 l 214 7 q 186 7 161 0 q 136 -8 120 -28 q 104 -48 104 -88 q 104 -118 115 -141 q 126 -164 154 -178 q 182 -191 233 -191 z"},"j":{"x_min":0,"x_max":300,"ha":300,"o":"m 151 636 q 127 636 110 650 q 94 664 94 698 q 94 733 110 746 q 127 760 151 760 q 174 760 191 746 q 208 733 208 698 q 208 664 191 650 q 174 636 151 636 z m -12 -240 l -12 -193 l -5 -193 q 31 -193 56 -176 q 82 -160 95 -120 q 108 -80 108 -9 l 108 426 q 108 470 84 482 q 59 494 26 494 l 23 494 l 23 536 l 202 536 l 202 -8 q 202 -98 176 -148 q 151 -199 106 -220 q 62 -240 4 -240 z"},"i":{"x_min":0,"x_max":320,"ha":320,"o":"m 161 636 q 137 636 120 650 q 104 664 104 698 q 104 733 120 746 q 137 760 161 760 q 184 760 201 746 q 218 733 218 698 q 218 664 201 650 q 184 636 161 636 z m 23 0 l 23 42 l 36 42 q 69 42 94 54 q 118 65 118 109 l 118 426 q 118 470 94 482 q 69 494 36 494 l 33 494 l 33 536 l 212 536 l 212 114 q 212 67 236 54 q 260 42 294 42 l 307 42 l 307 0 z"},"y":{"x_min":0,"x_max":565,"ha":565,"o":"m 38 -240 l 38 -193 q 106 -193 150 -167 q 193 -141 220 -96 q 246 -52 263 4 l 78 441 q 64 472 50 483 q 36 494 7 494 l 4 494 l 4 536 l 244 536 l 244 494 l 241 494 q 181 494 181 446 q 181 429 189 409 l 262 231 q 272 208 282 180 q 291 153 299 128 q 307 102 310 86 q 317 114 328 146 q 340 177 350 207 l 417 402 q 426 426 426 445 q 426 494 360 494 l 357 494 l 357 536 l 565 536 l 565 494 l 562 494 q 533 494 518 479 q 503 464 486 416 l 334 -4 q 308 -77 284 -123 q 260 -169 230 -194 q 201 -220 157 -230 q 113 -240 47 -240 z"},"@":{"x_min":0,"x_max":921,"ha":921,"o":"m 432 -142 q 325 -142 242 -102 q 159 -63 112 17 q 65 97 65 218 q 65 324 99 414 q 133 505 195 572 q 257 639 342 676 q 428 714 530 714 q 642 714 717 671 q 792 628 830 555 q 868 482 868 392 q 868 296 838 225 q 808 154 763 116 q 718 77 672 77 q 628 77 598 101 q 568 125 554 168 l 549 168 q 528 129 496 103 q 465 77 414 77 q 374 77 339 96 q 304 114 283 152 q 262 190 262 248 q 262 288 276 336 q 290 385 320 429 q 351 473 400 501 q 448 529 517 529 q 549 529 572 520 q 596 511 611 499 l 651 520 l 675 520 l 624 265 q 624 265 622 254 q 620 243 618 228 q 617 212 617 198 q 617 163 636 146 q 654 130 678 130 q 708 130 738 161 q 767 192 787 251 q 807 310 807 395 q 807 482 771 542 q 735 602 671 632 q 607 663 524 663 q 451 663 383 632 q 315 602 261 544 q 207 487 176 405 q 144 323 144 220 q 144 109 185 40 q 226 -28 294 -59 q 362 -90 442 -90 q 524 -90 588 -64 q 652 -38 696 -7 l 719 -43 q 670 -80 597 -111 q 524 -142 432 -142 z m 431 130 q 465 130 487 148 q 509 167 522 196 q 534 224 539 255 l 577 458 q 571 472 555 480 q 539 488 521 488 q 476 488 444 461 q 413 434 393 393 q 373 352 364 309 q 355 266 355 234 q 355 182 376 156 q 397 130 431 130 z"},".":{"x_min":0,"x_max":250,"ha":250,"o":"m 125 -7 q 99 -7 80 8 q 62 23 62 61 q 62 100 80 114 q 99 129 125 129 q 150 129 169 114 q 188 100 188 61 q 188 23 169 8 q 150 -7 125 -7 z"},"p":{"x_min":0,"x_max":614,"ha":614,"o":"m 18 -240 l 18 -198 l 26 -198 q 60 -198 84 -186 q 108 -173 108 -126 l 108 426 q 108 470 84 482 q 59 494 26 494 l 13 494 l 13 536 l 188 536 l 198 446 l 202 446 q 224 492 260 519 q 296 546 355 546 q 454 546 506 480 q 559 413 559 269 q 559 124 506 57 q 454 -10 355 -10 q 297 -10 260 14 q 224 39 202 78 l 198 78 q 200 49 201 16 q 202 -16 202 -35 l 202 -131 q 202 -175 226 -186 q 251 -198 284 -198 l 287 -198 l 287 -240 z m 339 54 q 405 54 434 110 q 462 165 462 270 q 462 376 434 429 q 405 482 338 482 q 260 482 231 430 q 202 377 202 269 q 202 165 231 110 q 260 54 339 54 z"},"X":{"x_min":0,"x_max":660,"ha":660,"o":"m 8 0 l 8 42 l 14 42 q 50 42 70 58 q 91 73 118 112 l 285 351 l 120 619 q 102 648 79 660 q 56 672 34 672 l 21 672 l 21 714 l 292 714 l 292 672 l 289 672 q 254 672 243 664 q 232 655 232 643 q 232 632 236 621 q 240 610 256 584 l 346 438 l 441 582 q 452 599 459 614 q 466 630 466 643 q 466 661 450 666 q 435 672 412 672 l 409 672 l 409 714 l 628 714 l 628 672 l 619 672 q 590 672 569 656 q 548 641 520 600 l 375 391 l 559 95 q 581 66 600 54 q 620 42 639 42 l 652 42 l 652 0 l 382 0 l 382 42 l 387 42 q 447 42 447 75 q 447 86 441 98 q 435 111 414 144 l 315 303 l 204 139 q 196 126 187 108 q 178 89 178 73 q 178 42 243 42 l 246 42 l 246 0 z"},"*":{"x_min":0,"x_max":500,"ha":500,"o":"m 204 378 l 229 536 l 76 441 l 41 519 l 209 569 l 41 619 l 76 698 l 230 601 l 204 760 l 291 760 l 263 602 l 418 696 l 453 618 l 284 569 l 453 520 l 418 443 l 263 536 l 291 378 z"},"Y":{"x_min":0,"x_max":625,"ha":625,"o":"m 159 0 l 159 42 l 182 42 q 215 42 240 54 q 264 65 264 109 l 264 298 l 79 619 q 62 648 48 660 q 34 672 8 672 l -5 672 l -5 714 l 270 714 l 270 672 l 233 672 q 206 672 198 662 q 189 653 189 640 q 189 626 195 612 q 201 598 207 587 l 281 453 q 298 422 310 392 q 323 362 331 339 q 340 360 357 391 q 374 422 391 453 l 455 568 q 465 585 469 600 q 473 616 473 628 q 473 672 413 672 l 384 672 l 384 714 l 628 714 l 628 672 l 616 672 q 595 672 576 656 q 558 639 533 594 l 365 298 l 365 114 q 365 67 389 54 q 413 42 447 42 l 470 42 l 470 0 z"},"c":{"x_min":0,"x_max":492,"ha":492,"o":"m 283 -10 q 216 -10 165 18 q 114 46 84 106 q 55 167 55 265 q 55 372 84 434 q 114 495 164 520 q 214 546 278 546 q 320 546 360 535 q 400 524 426 501 q 452 478 452 444 q 452 410 430 396 q 407 381 363 381 q 363 428 346 462 q 328 496 278 496 q 240 496 212 476 q 183 456 168 406 q 152 356 152 266 q 152 160 188 108 q 223 55 303 55 q 350 55 384 74 q 419 94 436 125 q 453 111 453 86 q 453 63 434 41 q 415 19 378 4 q 340 -10 283 -10 z"},"!":{"x_min":0,"x_max":332,"ha":332,"o":"m 139 201 l 108 714 l 224 714 l 193 201 z m 166 -7 q 140 -7 122 8 q 103 23 103 61 q 103 100 122 114 q 140 129 166 129 q 192 129 210 114 q 229 100 229 61 q 229 23 210 8 q 192 -7 166 -7 z"},"/":{"x_min":0,"x_max":288,"ha":288,"o":"m 0 -121 l 230 760 l 288 760 l 59 -121 z"},"[":{"x_min":0,"x_max":360,"ha":360,"o":"m 100 -128 l 100 760 l 323 760 l 323 718 l 280 718 q 246 718 222 706 q 198 693 198 646 l 198 -14 q 198 -61 222 -74 q 246 -86 280 -86 l 323 -86 l 323 -128 z"},"6":{"x_min":0,"x_max":559,"ha":559,"o":"m 293 -10 q 226 -10 174 28 q 122 65 92 146 q 61 228 61 360 q 61 431 77 496 q 93 562 125 614 q 157 665 206 694 q 256 724 322 724 q 405 724 446 692 q 487 660 487 619 q 487 559 410 559 q 410 608 390 642 q 370 676 322 676 q 247 676 208 602 q 169 527 164 382 q 189 402 224 418 q 258 434 307 434 q 398 434 453 380 q 508 325 508 229 q 508 158 482 104 q 457 51 409 20 q 361 -10 293 -10 z m 296 45 q 349 45 378 86 q 406 128 406 219 q 406 304 376 344 q 345 383 287 383 q 248 383 216 364 q 183 346 163 325 q 164 175 200 110 q 236 45 296 45 z"},"r":{"x_min":0,"x_max":471,"ha":471,"o":"m 33 0 l 33 42 l 36 42 q 70 42 94 54 q 118 67 118 114 l 118 426 q 118 470 94 482 q 69 494 36 494 l 33 494 l 33 536 l 187 536 l 206 437 l 211 437 q 224 467 239 492 q 254 516 279 531 q 304 546 348 546 q 403 546 430 527 q 456 508 456 473 q 456 442 434 422 q 413 402 363 402 q 363 443 351 462 q 339 480 310 480 q 282 480 263 458 q 244 436 233 402 q 222 368 217 332 q 212 295 212 266 l 212 109 q 212 65 236 54 q 261 42 294 42 l 322 42 l 322 0 z"},"2":{"x_min":0,"x_max":559,"ha":559,"o":"m 61 0 l 61 73 l 228 266 q 281 328 312 374 q 343 419 356 460 q 370 501 370 547 q 370 604 345 639 q 320 674 268 674 q 222 674 198 653 q 175 632 166 598 q 158 564 158 525 q 122 525 97 538 q 72 552 72 590 q 72 648 122 686 q 171 724 268 724 q 362 724 416 678 q 471 633 471 557 q 471 487 427 420 q 383 354 304 267 l 135 80 l 366 80 q 411 80 427 103 q 443 126 450 155 l 454 173 l 496 173 l 491 0 z"},"{":{"x_min":0,"x_max":428,"ha":428,"o":"m 312 -128 q 242 -128 205 -89 q 168 -50 168 16 l 168 190 q 168 231 152 254 q 136 276 110 285 q 83 294 50 296 l 50 338 q 83 339 110 348 q 136 358 152 380 q 168 402 168 443 l 168 617 q 168 685 205 722 q 242 760 312 760 l 378 760 l 378 717 l 348 717 q 304 717 285 690 q 266 664 266 612 l 266 441 q 266 392 238 360 q 210 327 155 318 l 155 317 q 212 307 239 274 q 266 242 266 193 l 266 20 q 266 -31 285 -58 q 304 -85 348 -85 l 378 -85 l 378 -128 z"},"9":{"x_min":0,"x_max":559,"ha":559,"o":"m 227 -11 q 170 -11 138 2 q 107 15 94 34 q 82 54 82 75 q 82 94 92 106 q 101 119 112 123 q 126 92 154 68 q 181 44 228 44 q 311 44 350 118 q 390 192 395 343 q 373 317 336 296 q 300 275 248 275 q 161 275 106 326 q 51 377 51 478 q 51 550 76 606 q 102 661 150 692 q 198 724 265 724 q 332 724 385 689 q 438 654 468 580 q 498 506 498 388 q 498 309 483 238 q 468 166 436 110 q 403 54 352 22 q 300 -11 227 -11 z m 270 334 q 319 334 350 358 q 382 383 396 415 q 394 548 358 608 q 323 669 265 669 q 212 669 183 622 q 154 576 154 488 q 154 406 183 370 q 212 334 270 334 z"}," ":{"x_min":0,"x_max":260,"ha":260,"o":""},"I":{"x_min":0,"x_max":367,"ha":367,"o":"m 38 0 l 38 42 l 51 42 q 85 42 109 54 q 133 67 133 114 l 133 600 q 133 647 109 660 q 85 672 51 672 l 38 672 l 38 714 l 329 714 l 329 672 l 316 672 q 282 672 258 660 q 234 647 234 600 l 234 114 q 234 67 258 54 q 282 42 316 42 l 329 42 l 329 0 z"},"H":{"x_min":0,"x_max":793,"ha":793,"o":"m 38 0 l 38 42 l 51 42 q 85 42 109 54 q 133 67 133 114 l 133 604 q 133 648 108 660 q 84 672 51 672 l 38 672 l 38 714 l 329 714 l 329 672 l 316 672 q 282 672 258 660 q 234 647 234 600 l 234 398 l 559 398 l 559 600 q 559 647 535 660 q 511 672 477 672 l 464 672 l 464 714 l 755 714 l 755 672 l 742 672 q 708 672 684 660 q 660 647 660 600 l 660 109 q 660 65 684 54 q 709 42 742 42 l 755 42 l 755 0 l 464 0 l 464 42 l 477 42 q 511 42 535 54 q 559 67 559 114 l 559 348 l 234 348 l 234 114 q 234 67 258 54 q 282 42 316 42 l 329 42 l 329 0 z"},"4":{"x_min":0,"x_max":559,"ha":559,"o":"m 215 0 l 215 42 l 243 42 q 277 42 301 54 q 325 67 325 114 l 325 196 l 17 196 l 17 237 l 326 714 l 421 714 l 421 252 l 545 252 l 545 196 l 421 196 l 421 114 q 421 67 445 54 q 469 42 503 42 l 516 42 l 516 0 z m 89 252 l 325 252 l 325 437 q 325 466 326 502 q 326 539 328 576 q 330 613 332 644 q 327 634 316 614 q 305 594 291 570 q 277 547 264 526 q 251 504 242 490 z"},"~":{"x_min":0,"x_max":559,"ha":559,"o":"m 54 269 q 57 298 63 328 q 69 359 82 386 q 95 412 118 428 q 140 444 176 444 q 210 444 238 427 q 266 410 301 378 q 322 358 342 343 q 362 328 383 328 q 411 328 424 358 q 437 388 444 444 l 504 444 q 501 418 494 388 q 488 358 475 331 q 462 304 440 286 q 417 269 382 269 q 347 269 318 287 q 290 305 262 332 q 239 354 219 370 q 199 385 176 385 q 147 385 132 356 q 118 328 113 269 z"},"D":{"x_min":0,"x_max":727,"ha":727,"o":"m 38 0 l 38 42 l 51 42 q 85 42 109 54 q 133 67 133 114 l 133 604 q 133 648 108 660 q 84 672 51 672 l 38 672 l 38 714 l 344 714 q 498 714 584 621 q 670 528 670 358 q 670 248 634 168 q 597 88 524 44 q 452 0 344 0 z m 234 51 l 321 51 q 440 51 500 130 q 559 210 559 358 q 559 506 500 585 q 440 664 322 664 l 234 664 z"},"^":{"x_min":0,"x_max":559,"ha":559,"o":"m 51 266 l 261 714 l 296 714 l 507 266 l 440 266 l 278 622 l 118 266 z"},"0":{"x_min":0,"x_max":559,"ha":559,"o":"m 280 -10 q 198 -10 146 36 q 94 82 70 165 q 45 248 45 359 q 45 470 70 552 q 94 634 146 679 q 198 724 281 724 q 359 724 410 679 q 462 634 488 552 q 514 469 514 358 q 514 247 488 164 q 462 82 410 36 q 358 -10 280 -10 z m 280 44 q 353 44 382 127 q 410 210 410 358 q 410 506 382 588 q 353 670 281 670 q 208 670 178 588 q 149 506 149 358 q 149 210 178 127 q 207 44 280 44 z"},"F":{"x_min":0,"x_max":590,"ha":590,"o":"m 38 0 l 38 42 l 51 42 q 84 42 108 54 q 133 65 133 109 l 133 604 q 133 648 108 660 q 84 672 51 672 l 38 672 l 38 714 l 542 714 l 547 539 l 495 539 l 490 582 q 486 616 466 640 q 445 664 398 664 l 234 664 l 234 375 l 475 375 l 475 326 l 234 326 l 234 114 q 234 67 258 54 q 282 42 316 42 l 349 42 l 349 0 z"},"`":{"x_min":0,"x_max":274,"ha":274,"o":"m 196 606 q 170 624 138 652 q 106 681 79 710 q 52 738 40 756 l 40 766 l 147 766 q 163 732 188 690 q 212 648 234 619 l 234 606 z"},"k":{"x_min":0,"x_max":585,"ha":585,"o":"m 18 0 l 18 42 l 26 42 q 60 42 84 54 q 108 67 108 114 l 108 650 q 108 694 84 706 q 59 718 26 718 l 18 718 l 18 760 l 202 760 l 202 374 q 202 360 202 339 q 201 318 200 297 q 199 276 198 262 q 198 248 198 248 l 323 385 q 355 421 366 440 q 378 460 378 474 q 378 487 366 490 q 354 494 329 494 l 329 536 l 550 536 l 550 494 q 516 494 482 470 q 448 445 409 401 l 339 322 l 472 124 q 498 84 524 63 q 549 42 583 42 l 586 42 l 586 0 l 572 0 q 528 0 500 3 q 471 6 452 16 q 432 25 414 44 q 397 64 376 97 l 276 254 l 202 199 l 202 109 q 202 65 226 54 q 251 42 284 42 l 287 42 l 287 0 z"},"u":{"x_min":0,"x_max":635,"ha":635,"o":"m 273 -10 q 194 -10 151 36 q 108 83 108 186 l 108 426 q 108 470 84 482 q 59 494 26 494 l 23 494 l 23 536 l 202 536 l 202 191 q 202 126 224 90 q 246 54 307 54 q 373 54 403 98 q 433 143 433 216 l 433 422 q 433 469 409 482 q 385 494 351 494 l 348 494 l 348 536 l 527 536 l 527 109 q 527 65 552 54 q 576 42 609 42 l 612 42 l 612 0 l 453 0 l 440 81 l 435 81 q 404 25 363 8 q 322 -10 273 -10 z"},"]":{"x_min":0,"x_max":360,"ha":360,"o":"m 37 -128 l 37 -86 l 80 -86 q 114 -86 138 -74 q 162 -61 162 -14 l 162 646 q 162 693 138 706 q 114 718 80 718 l 37 718 l 37 760 l 260 760 l 260 -128 z"},"U":{"x_min":0,"x_max":717,"ha":717,"o":"m 362 -10 q 244 -10 177 42 q 110 94 110 216 l 110 604 q 110 648 86 660 q 61 672 28 672 l 15 672 l 15 714 l 306 714 l 306 672 l 293 672 q 259 672 235 660 q 211 647 211 600 l 211 210 q 211 123 258 86 q 305 50 378 50 q 464 50 505 94 q 546 138 546 206 l 546 604 q 546 648 522 660 q 497 672 464 672 l 451 672 l 451 714 l 702 714 l 702 672 l 689 672 q 655 672 631 660 q 607 647 607 600 l 607 204 q 607 104 544 47 q 481 -10 362 -10 z"},"o":{"x_min":0,"x_max":577,"ha":577,"o":"m 287 -10 q 179 -10 117 59 q 55 128 55 269 q 55 409 114 478 q 174 546 290 546 q 398 546 460 478 q 522 409 522 269 q 522 128 462 59 q 402 -10 287 -10 z m 289 42 q 364 42 394 100 q 425 157 425 269 q 425 381 394 437 q 363 493 288 493 q 213 493 182 437 q 152 381 152 269 q 152 157 183 100 q 214 42 289 42 z"},"N":{"x_min":0,"x_max":763,"ha":763,"o":"m 38 0 l 38 42 l 51 42 q 85 42 109 54 q 133 67 133 114 l 133 604 q 133 648 108 660 q 84 672 51 672 l 38 672 l 38 714 l 221 714 l 579 161 l 579 604 q 579 648 554 660 q 530 672 497 672 l 484 672 l 484 714 l 735 714 l 735 672 l 722 672 q 688 672 664 660 q 640 647 640 600 l 640 0 l 569 0 l 194 576 l 194 114 q 194 67 218 54 q 242 42 276 42 l 289 42 l 289 0 z"},"+":{"x_min":0,"x_max":559,"ha":559,"o":"m 249 143 l 249 328 l 65 328 l 65 387 l 249 387 l 249 572 l 309 572 l 309 387 l 494 387 l 494 328 l 309 328 l 309 143 z"},"G":{"x_min":0,"x_max":714,"ha":714,"o":"m 401 -10 q 285 -10 208 36 q 132 82 94 164 q 57 247 57 358 q 57 466 96 548 q 136 631 214 678 q 292 724 407 724 q 518 724 573 692 q 628 660 628 612 q 628 580 601 561 q 574 542 535 542 q 535 573 522 602 q 510 632 481 652 q 452 671 403 671 q 276 671 222 590 q 168 508 168 358 q 168 208 224 128 q 280 47 417 47 q 446 47 473 50 q 500 53 521 59 l 521 220 q 521 264 496 276 q 472 288 439 288 l 435 288 l 435 330 l 695 330 l 695 288 l 691 288 q 662 288 642 276 q 622 263 622 216 l 622 36 q 572 13 519 2 q 466 -10 401 -10 z"},"q":{"x_min":0,"x_max":614,"ha":614,"o":"m 297 -240 l 297 -198 l 330 -198 q 364 -198 388 -186 q 412 -173 412 -126 l 412 -40 q 412 -24 412 0 q 413 25 414 50 q 414 74 416 90 l 412 90 q 390 44 354 17 q 318 -10 259 -10 q 160 -10 108 56 q 55 123 55 267 q 55 412 108 479 q 160 546 259 546 q 317 546 354 522 q 390 497 412 458 l 418 458 l 436 536 l 596 536 l 596 494 l 588 494 q 554 494 530 482 q 506 469 506 422 l 506 -130 q 506 -174 530 -186 q 555 -198 588 -198 l 596 -198 l 596 -240 z m 276 54 q 354 54 383 106 q 412 159 412 267 q 412 371 383 426 q 354 482 275 482 q 209 482 180 426 q 152 371 152 266 q 152 160 180 107 q 209 54 276 54 z"},"d":{"x_min":0,"x_max":614,"ha":614,"o":"m 259 -10 q 160 -10 108 56 q 55 123 55 267 q 55 412 108 479 q 160 546 259 546 q 317 546 354 522 q 390 497 412 458 l 418 458 q 415 483 414 514 q 412 544 412 568 l 412 650 q 412 694 388 706 q 363 718 330 718 l 322 718 l 322 760 l 506 760 l 506 110 q 506 66 530 54 q 555 42 588 42 l 596 42 l 596 0 l 427 0 l 416 90 l 412 90 q 390 44 354 17 q 318 -10 259 -10 z m 276 54 q 354 54 383 106 q 412 159 412 267 q 412 371 383 426 q 354 482 275 482 q 209 482 180 426 q 152 371 152 266 q 152 160 180 107 q 209 54 276 54 z"},"1":{"x_min":0,"x_max":559,"ha":559,"o":"m 96 0 l 96 42 l 163 42 q 197 42 221 54 q 245 67 245 114 l 245 639 q 207 592 176 564 q 146 535 116 535 q 94 535 80 550 q 66 565 66 589 q 96 596 129 612 q 162 629 212 666 l 282 718 l 346 718 l 346 114 q 346 67 370 54 q 394 42 428 42 l 477 42 l 477 0 z"},"5":{"x_min":0,"x_max":559,"ha":559,"o":"m 244 -10 q 170 -10 129 6 q 88 22 72 45 q 55 68 55 91 q 55 119 70 134 q 86 150 118 150 q 118 107 148 78 q 178 49 239 49 q 280 49 312 65 q 345 81 364 118 q 382 154 382 218 q 382 297 340 336 q 299 374 230 374 q 178 374 152 367 q 126 360 107 352 l 83 359 l 115 714 l 449 714 l 454 563 l 412 563 l 408 593 q 405 614 396 624 q 386 634 354 634 l 160 634 l 141 413 q 156 418 185 424 q 214 429 258 429 q 322 429 374 406 q 426 382 456 335 q 486 288 486 218 q 486 150 458 98 q 429 47 374 18 q 320 -10 244 -10 z"}}}
